<?xml version="1.0" encoding="utf-8"?>
<!-- Generator: Adobe Illustrator 27.3.1, SVG Export Plug-In . SVG Version: 6.00 Build 0)  -->
<svg version="1.1" id="Слой_1" xmlns="http://www.w3.org/2000/svg" xmlns:xlink="http://www.w3.org/1999/xlink" x="0px" y="0px"
	 width="512px" height="512px" viewBox="0 0 512 512" style="enable-background:new 0 0 512 512;" xml:space="preserve">
<style type="text/css">
	.st0{fill-rule:evenodd;clip-rule:evenodd;fill:#703F92;}
	.st1{fill-rule:evenodd;clip-rule:evenodd;fill-opacity:6.700000e-02;}
	.st2{fill-rule:evenodd;clip-rule:evenodd;fill-opacity:0.129;}
	.st3{fill-rule:evenodd;clip-rule:evenodd;fill:#FFFFFF;stroke:#000000;stroke-width:4.904;stroke-opacity:0.31;}
	.st4{fill:#FFFFFF;}
	.st5{fill:#703F92;}
	.st6{fill:none;}
</style>
<g>
	<path class="st0" d="M472,253.1C472,374,373.9,472,253,472S34.1,374,34.1,253.1S132.1,34.1,253,34.1S472,132.2,472,253.1"/>
	<path class="st1" d="M256,1C115.2,1,1,115.2,1,256s114.2,255,255,255s255-114.2,255-255S396.8,1,256,1 M264.8,45.9
		c120.9,0,218.9,98,218.9,218.9s-98,218.9-218.9,218.9s-218.9-98-218.9-218.9S143.9,45.9,264.8,45.9"/>
	<g>
		<path class="st2" d="M256,4.4C117.1,4.4,4.4,117.1,4.4,256S117.1,507.6,256,507.6S507.6,394.9,507.6,256S394.9,4.4,256,4.4
			 M261.9,43c120.9,0,218.9,98,218.9,218.9s-98,218.9-218.9,218.9S43,382.8,43,261.9S141,43,261.9,43"/>
		<path class="st2" d="M256,8.4C119.2,8.4,8.4,119.2,8.4,256S119.2,503.6,256,503.6S503.6,392.8,503.6,256S392.8,8.4,256,8.4
			 M258.9,40.1c120.9,0,218.9,98,218.9,218.9s-98,218.9-218.9,218.9S40,379.9,40,259S138,40.1,258.9,40.1"/>
	</g>
	<path class="st3" d="M253,7.9C117.6,7.9,7.8,117.6,7.8,253.1c0,135.4,109.8,245.2,245.2,245.2c135.4,0,245.2-109.8,245.2-245.2
		C498.2,117.6,388.4,7.9,253,7.9 M253,34.2c120.9,0,218.9,98,218.9,218.9S373.9,472,253,472S34.1,374,34.1,253.1
		S132.1,34.2,253,34.2z"/>
</g>
<path class="st4" d="M160.8,365.6c-3.7-1.2-4.9-2.1-9.4-6.4c-10.1-9.7-20-23.5-27.1-37.8c-7.3-14.7-11.9-29.5-14.2-45.7
	c-1.5-10.3-1.5-29.4,0-39.7c4.4-30.8,18-59.2,38.8-80.9c7.5-7.9,10.3-9.4,17.1-9.4c3.7,0,5.2,0.3,7.5,1.4
	c8.8,4.3,12.8,14.3,9.4,23.3c-0.9,2.4-2.4,4.5-5.6,7.9c-9.4,10-15.3,18.5-20.8,29.9c-14.6,30.2-14.6,65.1,0,95.3
	c5.5,11.3,11.4,19.9,20.8,29.9c3.2,3.4,4.7,5.6,5.6,7.9c3.3,8.8-0.6,19-8.8,23C170.4,366.2,164.2,366.8,160.8,365.6 M342,365.8
	c-5.2-1.2-9.9-5.2-12.4-10.1c-1.2-2.4-1.4-3.7-1.4-7.8c0-6.2,1.2-8.9,6.8-14.9c20.6-22.1,31.4-48.5,31.4-77.2
	c0-28.5-10.6-54.8-31.2-77c-5.7-6.2-7-9-7-15.1c0-5.8,1.3-9.1,5.1-12.9c3.7-3.7,7.2-5.1,12.7-5.1c6.6-0.1,9.7,1.5,16,8.1
	c10.8,11.2,19,22.9,26,37.3c7.2,14.7,11.1,27,13.6,43.2c1.7,10.7,1.8,31,0.3,41.4c-3.7,25.3-13.6,49.1-28.5,68.9
	c-5.2,6.9-14,16.4-16.9,18.4C352.4,365.9,346.7,367,342,365.8 M202.1,328.8c-3.3-1.1-6.1-2.9-8.4-5.5c-1.1-1.2-2.3-2.3-2.6-2.4
	s-2-1.8-3.8-3.8c-18.6-21-26.7-49.4-21.9-77.2c2-11.4,7.4-25,13.9-34.7c3.5-5.2,10.9-14.2,11.7-14.2c0.3,0,1.5-1.2,2.8-2.6
	s3.8-3.3,5.6-4.2c2.8-1.4,3.9-1.6,7.9-1.5c5.7,0.1,9,1.4,12.9,5.3c5,5,6.6,12.6,4,19.5c-0.9,2.5-2.3,4.4-6.1,8.2
	c-8.3,8.5-13.5,17.5-16.1,28.1c-1.3,5.4-1.3,19.1,0,24.4c2.7,10.7,7.8,19.7,16.1,28.1c3.8,3.8,5.2,5.7,6.1,8.2
	c4.4,11.8-3.6,24.2-15.9,24.9C206.1,329.5,203.5,329.2,202.1,328.8 M300.6,329c-5.3-1.4-10-5.2-12.4-10.1c-1.2-2.4-1.4-3.8-1.4-7.8
	c0-4.2,0.2-5.3,1.6-8c0.9-1.7,3.6-5.1,5.9-7.5c7.7-7.9,13-17.1,15.6-27.6c0.7-2.7,1-6.3,1-12.2c0-5.9-0.3-9.5-1-12.2
	c-2.6-10.4-7.8-19.7-15.6-27.6c-5.2-5.3-7.3-9.1-7.7-14c-0.6-7.3,3-13.8,9.6-17.5c3.4-1.9,4.2-2.1,8.3-2.1c6.5,0,9.5,1.5,16.2,8.2
	c36.3,36.3,36.3,94.4,0,130.4c-6,6-9.5,7.9-14.9,8.2C303.9,329.4,301.6,329.3,300.6,329 M249.4,292.2c-3.9-0.8-9-2.8-12.3-4.8
	c-4.1-2.4-10.2-8.5-12.6-12.6c-12.2-20.6-1.9-47,21.1-54.2c5.4-1.7,15.5-1.7,21,0c16.4,5.1,27.1,20.4,26.2,37.4
	c-0.5,9.3-4.1,17.2-10.8,23.8c-7,7-14.7,10.3-24.4,10.7C254.3,292.6,250.7,292.4,249.4,292.2"/>
<path class="st5" d="M445.2,205.1c-10.5-6.1-20.9,2-28.8,9.3c-2.5-2.9-5.2-5.7-7.9-8.3c-0.7-2.6-1.4-5.2-2.2-7.8
	c-1.4-4.3-5.8-4.4-8.2-2c-0.4-0.4-0.8-0.7-1.2-1.1c-0.9-4.4-1.8-8.7-2.9-13.1c-0.8-3.3-4.5-4.4-7.3-3c-1.3,0.7-2.5,1.4-3.5,2.3
	c-0.1-2.8-0.4-5.7-0.8-8.4c0.7-7.4,0.8-15.2-1.2-21.9c-0.4-1.4-1-2.8-1.9-4c-0.2-1.4-0.5-2.8-0.9-4.2c-1.2-4.7-8.1-4.8-9.6-0.2
	c-3,0.6-5.8,2.2-8.4,3.8c-0.7,0.4-1.3,0.9-2,1.3c-1.5-1.1-3.1-1.9-5-2.2c-0.8-0.1-1.5-0.1-2.2,0c-0.8-1.1-1.7-2.2-2.6-3.2
	c-1.4-5.1-3-10.2-4.8-15.2c-1.8-5-3.5-10.7-6.3-15.2c-5.4-8.7-15.2-4.4-19.8,2.6c-5.3,8.3-7.9,19.6-9.4,29.2
	c-0.8,4.8-1.2,9.6-1.3,14.5c-0.9,2.1-1.6,4.2-2,6.2c-0.2,0.8-0.3,1.6-0.4,2.4c-9.3-1.2-18.6-2.2-27.9-3.1
	c-17.3-1.7-34.7-2.9-52.1-3.6c5.2-5.6,7.4-13.4,3-21.1c-2-3.5-6.6-3-8.6,0c-4.6,6.5-9.1,13.2-13.5,19.8c-0.8,0.1-1.6,0.2-2.5,0.2
	c-0.1-0.3-0.2-0.6-0.3-0.8c0.9-1.8,1.8-3.5,2.6-5.3c5.3-11.3-6.6-14.7-15.5-16.2c-5.5-0.9-11-1.1-16.5-0.7c-0.7-0.5-1.6-0.7-2.5-0.6
	c-3.2,0.4-6.3,1.3-9.1,2.5c-6.7,1.7-13.1,4.3-19,8c-4.4-1.4-9.4-1.2-11.8,3.3c-0.9,1.7-1.3,3.8-1.4,6.1c-2,1-2.8,2.9-2.6,4.7
	c-7.5,10-12,23-10.1,35.1c-5.4,7-10.8,14-16.2,21.1c-0.1,0.2-0.2,0.4-0.4,0.5c-3.1-1.6-7.7-0.2-7.4,4.1c0.1,1.3,0.2,2.5,0.3,3.8
	c-1.3-1.5-2.5-3.1-3.8-4.6c-0.7-0.8-1.6-1.2-2.5-1.4c-4.8-5.4-10.5-10.2-17.5-14.1c-4.3-2.4-9.4,2.4-6.8,6.8
	c5.3,9,10.9,18.8,14.6,29c-1.3,7.1-2.4,14.2-3.2,21.3c-0.9,8.4,0.4,19,10.6,19.9c2.2,0.2,4.3-1.7,4.8-3.7c1-3.6,1.6-7.2,1.9-10.7
	c1,2.2,2.3,4.2,3.9,5.8c-0.8,3.8-1.6,7.6-2.4,11.4c-0.7,3.3,1.3,5.5,3.7,6c3,8.4,6.4,16.7,10.3,24.7c-0.8,4.8-2,9.7-3.5,14.4
	c-1.6,5,4.8,8.1,8.4,4.9c1.2-1.1,2.4-2.3,3.5-3.4c0.6,0.9,1.1,1.8,1.7,2.7c1.1,1.8,2.8,2.5,4.5,2.3c2.5,2.8,4.9,5.7,7.3,8.7
	c-0.7,4.7-0.5,9.8,0,14c1,8.5,4,16.6,8.9,23.6c2.6,3.8,7.5,2.8,9.1-1.2c0.3-0.7,0.6-1.5,0.8-2.2c1.4,0.9,3.1,1.4,5.1,1.7
	c4.4,0.5,8.2-0.8,11.6-3.1c2.3,2.7,4.8,5.3,7,8c4.1,4.9,8.2,9.8,12.3,14.6c6.9,8,14.8,15.3,25.4,17.9c3.8,1,7.7,1.3,11.6,1.6
	c3.5,2.2,8.5,2.1,13.2,1c2.4,1.1,4.9,1.5,7.5,1.3c0.9,0.2,1.7,0.5,2.6,0.8c2.9,1.1,5.1-0.7,5.8-3c5.8-2.4,11.4-6.4,15.5-9.4
	c1.4-1.1,2.9-2.2,4.2-3.3c-1.8,4.1-3.3,8.5-4.7,12.7c-1,3,1.7,6.5,4.8,6.3c10.3-0.5,18.9-6.9,23.6-16c2.5-4.8,3.7-9.8,4.1-15
	c4.1-0.1,6.7,2.2,10.5,4.9c4.5,3.3,9.5,2.9,14.2,0.1c5.2-3.1,9.9-7.5,14.4-11.5c4.9-4.2,9.7-8.6,14.3-13.1c1-1,2.1-2.1,3.1-3.1
	c0.6,0.4,1.2,0.7,1.9,1c0.1,0.2,0.3,0.4,0.4,0.6c-5.5,11.7-12.1,22.7-21.1,32.1c-4.5,4.8,2.2,11,7.1,7.1c9-7.3,18-14.5,26.9-21.7
	c1.7,1.5,3.9,1.5,5.6,0.5c-6.3,8.7-13.6,16.1-23.5,21.6c-14.4,8.2-29.6,15.2-44.4,22.5c-17.3,8.5-34.7,16.9-52.2,25.2
	c-5.8,2.8-0.7,11.4,5,8.6c31.6-15,63.5-29.7,94.2-46.4c13.9-7.6,24.1-17.9,32.6-31.1c8.7-13.5,16.2-27.8,22.6-42.5
	c3.4-7.9,6.5-16,9.2-24.2c2.1,2.1,6.4,2,8.1-0.9c0.8-1.3,1.5-2.6,2.2-3.9c0.9,3.1,1.8,6.3,2.8,9.4c2,6.2,10.7,3.6,9.6-2.7
	c-1.3-8.2-2.8-16.4-4.5-24.6c4.4-12.3,6.8-25.2,7.2-38.3c0.2-6.4-9.8-6.4-10,0c-0.2,5.9-0.9,11.8-1.9,17.5c-0.1-0.5-0.3-1.1-0.4-1.6
	c2.3-13.6,4.2-27.8,0.3-41.2c-1.1-3.8-2.7-7.5-4.7-11c6.8-4.8,13.3-10.1,19.4-15.7C448.6,210.8,447.9,206.7,445.2,205.1z
	 M89.4,247.8c-0.6-2.6-1.4-5.2-2.2-7.7c0.2-1,0.4-2,0.6-2.9c1,1.7,1.9,3.4,2.8,5.2C90.2,244.2,89.8,246,89.4,247.8z M135.9,222.3
	c-0.1,0-0.3,0-0.4-0.1c0.1-0.3,0.2-0.6,0.2-0.9c0.1-0.1,0.3-0.2,0.4-0.4C136.1,221.4,136,221.9,135.9,222.3z M136.9,318.6
	c0.1,0.1,0.1,0.1,0.2,0.2c0.1,0.4,0.2,0.7,0.2,1c-0.2-0.2-0.4-0.3-0.6-0.5C136.7,319.1,136.8,318.9,136.9,318.6z M137.4,331.6
	c-0.1-0.2-0.2-0.4-0.3-0.6c0.4,0.1,0.9,0.2,1.4,0.3C138.1,331.4,137.7,331.5,137.4,331.6z M194.3,173.8c-0.1,0-0.2-0.1-0.3-0.1
	c0.6-1,1.3-2,1.9-3.1c0.1,0.7,0.3,1.5,0.4,2.2C195.5,173.2,194.9,173.5,194.3,173.8z M197.5,329.4c0.1-0.6,0.2-1.2,0.3-1.8
	c0.7-0.4,1.3-0.9,2-1.3C199,327.3,198.2,328.3,197.5,329.4z M321.9,130.2c1.2-3.5,2.3-9.3,5.4-11.7c2-1.6,2.1-0.2,3,1.9
	c1,2.3,1.9,4.7,2.8,7.1c0.4,1,0.7,2,1.1,2.9c-2.1-0.5-4.4,0.6-5.5,2.4c-1.9,3.2-3.4,6.6-4.4,10.1c-2.1,0.1-4.2,0.8-6,1.9
	C319.2,139.7,320.4,134.8,321.9,130.2z M319,157.1c0.5-0.6,1-1.2,1.7-1.8c0.6,2.6,1.1,5.1,1.7,7.7c-0.1,0.8-0.2,1.6-0.2,2.4
	c-1.2,1.2-2.4,2.4-3.6,3.6c-0.4-0.1-0.8-0.1-1.3-0.2c-0.3-2.8-0.4-5.6-0.4-8.4C317.5,159.2,318.2,158.1,319,157.1z M312.6,326.8
	c0.7,0,1.5,0.1,2.2,0c0.6,0,1.3-0.1,1.9-0.1c-0.2,0.8-0.4,1.5-0.6,2.4c-0.1,0.7-0.1,1.4,0,2.1c-0.3,1.7-0.6,3.5-0.8,5.2
	c-1-0.3-2-0.7-2.9-1.3C312.9,332.4,313,329.6,312.6,326.8z M211.5,360.6c-0.5-0.6-0.9-1.1-1.3-1.7c0.2-0.7,0.4-1.4,0.5-2.1
	c0.4,0.3,0.7,0.6,1.1,0.9C211.7,358.7,211.6,359.6,211.5,360.6z M219.3,402.3c-0.3,0.6-0.6,1.2-0.9,1.8c-0.2-2.3-0.5-4.5-0.9-6.8
	c0.7,1.4,1.5,2.7,2.2,4.1C219.6,401.7,219.5,402,219.3,402.3z M230.1,256.8c0.1-0.2,0.1-0.3,0.2-0.5c0.4-0.2,0.8-0.4,1.2-0.5
	c0,0.2,0.1,0.4,0.1,0.5C231.1,256.5,230.6,256.7,230.1,256.8z M243.1,213.9c0.2-0.5,0.4-1,0.6-1.5c0.2,0.4,0.4,0.8,0.6,1.2
	C243.9,213.8,243.5,213.8,243.1,213.9z M252.3,391.1c0.2-1.3,0.3-2.5,0.4-3.8c1.7-2.7,3.4-5.3,5.1-8c0.7-0.1,1.3-0.3,1.9-0.5
	c0.6,0.4,1.2,0.7,2,1c-0.7,1.9-1.6,3.8-2.5,5.7L252.3,391.1z M250.5,203.6c4.2-2.8,9.2-2.6,14-1.5c-3.2,3.2-6.5,6.3-9.9,9.5l-0.1,0
	C253.4,208.9,252.1,206.2,250.5,203.6z M259.7,402c0.1-0.1,0.2-0.3,0.3-0.4c1.5-1.6,2.8-3.3,4.1-5.1c1.6-2,3.2-4.1,4.8-6.1
	c0,0.3,0,0.5,0.1,0.8c0.1,0.8,0.4,1.6,0.8,2.3C266.5,396.5,263.2,399.4,259.7,402z M257.6,191.3
	C257.6,191.3,257.6,191.3,257.6,191.3c4.4-3.6-1.4-11.1-6-7.9c-2.2,1.5-4.4,3.1-6.5,4.8c0.2-3.1,0.7-6.2,1.7-9.1
	c1.8-5.3-6.7-9-9.1-3.9c-1.1,2.2-2.3,4.3-3.7,6.3c-1.4-1.5-3.7-2.3-6.1-1.1c-1.1,0.5-2.2,1-3.4,1.5c-4-1.5-8.3-2.5-12.6-3
	c0.8-1.3,1.6-2.7,2.3-4.1c0.8-1.5,0.7-3.4-0.1-4.9c12.2,0.4,24.3,0.9,36.4,1.8c18.1,1.2,36.1,3,54,5.3c0.1,0.8,0.2,1.7,0.4,2.5
	c-0.7,0.5-1.4,1-2.2,1.4c-4.2-3.2-9.1-4.1-14.7-1.9c-7,2.7-11.1,9.4-15.8,14.9C267.5,192.3,262.5,191.2,257.6,191.3z M301.6,338.8
	c0,0.2-0.1,0.4-0.1,0.5c-0.9,3.7-2.1,7.3-3.4,10.9c-0.4-1.6-0.9-3.1-1.7-4.6c0.7-0.9,1.4-1.9,2-2.8c1-1.4,1.9-3,2.7-4.6
	C301.3,338.4,301.4,338.6,301.6,338.8z M277.3,413.4c2.1-5.3,4.9-10.3,9-13.8C285,404.9,281.8,410.2,277.3,413.4z M288.8,357.8
	c-0.5-0.4-1-0.8-1.5-1.1c0.5-0.5,1-1.1,1.4-1.6C288.9,356,288.9,356.9,288.8,357.8z M293.9,330.5c-0.4,0.2-0.7,0.4-1.1,0.5
	c-0.8,0.3-1.6,0.6-2.5,0.7c0.7-1.3,1.4-2.7,2-4.1c0.6,0.1,1.1,0.2,1.7,0.2C294.1,328.7,294.1,329.6,293.9,330.5z M327.7,382.9
	c-2.7,2.3-5.4,4.6-8.2,6.7c-0.9,0.7-3.1,2.7-4.3,2.8c-1.9,0.2-2.5-1.1-3.8-2.2c-4.1-3.6-9.3-5.1-14.5-5c-0.3-2.6-0.6-5.3-1.1-7.9
	c6.3-9.8,11.6-20.9,14.7-32.3c0.9,0.4,1.8,0.6,2.8,0.9c0.2,0.7,0.6,1.4,1.2,1.9c0,0.6-0.1,1.1-0.1,1.7c-0.1,1.2,0.4,2.3,1.2,3.2
	c-1.8,3.3-0.1,7.3,3.6,7.6c0.1,1.4,0.9,2.7,2.4,3.5c3.2,1.7,6.6,3,10,3.9c1.9,2.8,4.7,4.2,7.9,4.7
	C335.5,376.1,331.6,379.6,327.7,382.9z M341.5,211.9c0,0.2-0.1,0.4-0.1,0.5c-0.1-0.1-0.2-0.1-0.3-0.2c0-0.3,0.1-0.6,0.1-1
	c0.1-0.1,0.2-0.3,0.3-0.4C341.6,211.3,341.5,211.6,341.5,211.9z M369.1,376.6c-0.7-1-1.4-2-2.1-3c0.6-1.4,1.2-2.8,1.8-4.2
	C369.2,371.8,369.2,374.2,369.1,376.6z M381.3,381.8c-1.4,2.3-2.8,4.5-4.2,6.6c0.4-1.4,0.8-2.9,1.1-4.3c1.1-0.9,2.2-1.8,3.3-2.7
	C381.5,381.5,381.4,381.6,381.3,381.8z M397.1,352.1c-3.7,7.3-11.8,13.7-18.1,18.6c-0.1-0.6-0.1-1.1-0.2-1.7
	c-0.6-4.3-5.4-5.7-8.2-4.1c0.3-0.8,0.7-1.6,1-2.5c2.7-1.6,5.2-3.4,7.6-5.5c1.8-1.6,1.8-3.9,0.8-5.7c3.5-2.8,7.1-5.6,10.5-8.4
	c0.1,1.4,0.1,2.9,0.2,4.3c0.1,3.9,3.6,5.4,6.5,4.6C397.2,351.8,397.1,351.9,397.1,352.1z M401.2,230.1c-0.1-0.4-0.2-0.8-0.4-1.2
	c-0.1-1.5-0.1-3-0.2-4.5c0.5-0.7,1-1.3,1.5-2c0.4,1.8,0.7,3.6,1,5.5C402.5,228.7,401.8,229.4,401.2,230.1z M415.9,266.8
	c-0.1,0.3-0.2,0.5-0.3,0.8c0.1-1.8,0.1-3.7,0.1-5.5c0.2,0.7,0.4,1.5,0.7,2.2C416.2,265.2,416.1,266,415.9,266.8z M421,240
	c-0.3,0.3-0.6,0.7-0.8,1.1c-0.2-0.2-0.4-0.4-0.6-0.6c-0.6-1.9-1.2-3.9-1.9-5.7c0.3-0.2,0.5-0.3,0.8-0.5
	C419.5,236.2,420.3,238,421,240z"/>
<path class="st6" d="M343.4,363.3c11.5-6.6,20.7-16.4,29.4-26.2c8.9-10,17-20.8,11.3-34.7c-2.4-5.9-12.1-3.3-9.6,2.7
	c4.9,11.8-4.2,20.1-11.6,28.2c-7.3,8-15,15.9-24.4,21.4c-3.4,2-7.1,3.6-10.9,4.8c3-3.4,6.1-6.6,9.4-9.7c4.7-4.4-2.4-11.5-7.1-7.1
	c-6.1,5.7-11.6,11.9-16.6,18.5c-1.5-0.1-3-0.3-4.5-0.7c-10.4-2.4-18.5-9.8-25.4-17.5c-4.3-4.8-11.4,2.3-7.1,7.1
	c6.5,7.2,14.1,14,23.1,17.8v0c0,0.3,0,0.6,0,1c0,0,0,0,0,0c0,0,0,0,0,0c0,0.2,0,0.3,0.1,0.5c0,0,0,0,0,0c0,0,0,0,0,0c0,0,0,0,0,0
	c0,0.1,0.1,0.3,0.1,0.4c0,0,0,0,0,0c0,0,0,0,0,0c0,0,0,0,0,0c0,0.1,0.1,0.3,0.1,0.4c0,0,0,0,0,0c0,0,0,0,0,0.1c0,0,0,0,0,0
	c0.1,0.1,0.1,0.2,0.2,0.4c0,0,0,0,0,0c0,0,0,0,0,0.1c0.1,0.1,0.1,0.2,0.2,0.3c0,0,0,0,0,0c0,0,0,0.1,0.1,0.1c0,0,0,0,0,0
	c0.1,0.1,0.1,0.2,0.2,0.3c0,0,0,0,0,0c0,0,0,0,0,0c0.1,0.1,0.2,0.2,0.3,0.3c0,0,0,0,0,0c0,0,0,0,0.1,0.1c0.1,0.1,0.2,0.2,0.3,0.2
	c0,0,0,0,0,0c0,0,0.1,0.1,0.1,0.1l0,0c0.2,0.2,0.4,0.3,0.7,0.4c0,0,0,0,0,0c0,0,0,0,0,0c0.3,0.2,0.7,0.3,1.1,0.4c0,0,0,0,0.1,0h0
	c0.1,0,0.2,0,0.4,0.1c0,0,0,0,0,0c0,0,0.1,0,0.1,0c0.2,0,0.4,0,0.7,0c0.3,0,0.5,0,0.8-0.1h0c-2.4,3.5-4.7,7.1-6.9,10.8
	c-27.5-14.9-55-29.8-82.5-44.7c-5.7-3.1-10.7,5.6-5,8.6c27.5,14.9,54.9,29.7,82.4,44.6c-1.2,2-2.3,3.9-3.5,5.9
	c-3.3,5.6,5.4,10.6,8.6,5c1.2-2.1,2.4-4.1,3.7-6.2c0,0,0,0,0,0c7.4,4,14.8,8.4,22.4,12.1c5.4,2.7,12.3,4,16.4-1.7
	c1.9-2.7,2.3-6,3.4-9.1c1.2-3.5,2.9-6.7,4.8-9.8c4-6.5,9.1-12.2,14.1-17.9c4.3-4.8-2.8-11.9-7.1-7.1c-8.6,9.7-17.3,19.7-21.5,32.1
	c-0.4,1.2-0.5,3.8-1.3,4.6c-1.6,1.7-2.5,0.8-4.4-0.1c-3.3-1.5-6.4-3.5-9.6-5.2c-4-2.2-8-4.4-12.1-6.5c0.7-1.1,1.4-2.3,2.2-3.4
	c2.2,4.2,5.7,8.3,10.4,8.8c6.3,0.7,10.1-6.9,13.5-11.2c1.7-2.1,2.1-5,0-7.1c-1.7-1.8-5.4-2.1-7.1,0c-1.2,1.6-2.5,3.2-3.7,4.8
	c-0.5,0.6-1,1.3-1.5,1.9c-0.2,0.2-0.5,0.5-0.7,0.8c-1.3-1.2-2.2-2.8-2.9-4.4c-0.3-0.7-0.6-1.3-1.1-1.8c0.1-0.7,0.1-1.5-0.1-2.2
	c0.8-1.2,1.7-2.4,2.5-3.6C327,370.7,335.7,367.7,343.4,363.3z"/>
<path class="st5" d="M451.9,249.7c-3.3-10.5-10.4-19.2-19.8-24.9c-2.2-1.3-5.7-0.6-6.8,1.8c-0.1,0.2-0.1,0.3-0.2,0.5
	c-9.2-13-21.2-24-35.1-32.1c-3.7-2.2-8.6,1.4-7.3,5.6c8,27.2,1.5,57.5-17.4,78.7c-4.3,4.8,2.8,11.9,7.1,7.1
	c18.4-20.7,26.7-49,22.7-76.1c10.7,8.1,19.7,18.2,26.5,29.7c-1.3,12.7,3.4,25.8,13.5,34.2c2.9,2.4,6.7,1.3,8-1.5
	c-0.6,3.9-1.6,7.8-2.6,11.5c-5.2,19.9-10.6,40-21,57.9c-4.9,8.4-10.3,16.5-13.7,25.7c-1.5,4-2.5,8.3-4.3,12.1
	c-2.3,4.7-5.9,8.2-10,11.3c-14.2,10.9-29.7,20.4-45.1,29.4c0.1-0.3,0.3-0.7,0.4-1c1.7-6.6,3-13.2,4-19.9c1.1,0.3,2.3,0.1,3.5-0.8
	c26.6-18.6,42.8-51,40.4-83.5c-0.2-3.3-0.3-7.1-2.5-9.8c-2.5-3.1-6.6-3.3-10-1.6c-4.5,2.2-8.7,5.9-12.8,8.7c-4.4,3-8.7,6-13.1,9
	l-54.1,37.3c-20.2,13.9-40.5,27.9-60.7,41.8c-4.4,3-1.9,11,3.9,9.1c32.5-10.5,62.6-27.2,88.6-49.2c0.2,4,0.4,7.9,0.6,11.9
	c-9.2,11.3-16.4,23.8-22.3,37.4c-3.3,7.7-7,15.3-15.2,18.6c-8,3.1-16.3,3.9-22.7,10.2c-2.5,2.5-1.5,6,1,7.9
	c7.7,5.7,17.4,8.2,26.9,6.7c10.6-1.7,20.5-8.1,29.8-13.2c20.9-11.4,41.1-24,60.6-37.7c8.5-6,15.5-12.1,19.3-22
	c1.9-4.9,3.2-10,5.4-14.8c2.6-5.4,5.8-10.5,8.9-15.7c11.9-19.9,18.3-42.1,24.1-64.3C453.5,274.2,455.7,261.5,451.9,249.7z
	 M363,329.3l11.5-7.9c1.9-1.3,3.8-2.6,5.7-4c0.5-0.3,2.9-1.7,4.4-2.7c0,0.3,0.1,0.5,0.1,0.7c0.1,1.7,0.2,3.5,0.2,5.2
	c0,3.7-0.2,7.5-0.6,11.2c-0.9,6.9-2.7,13.8-5.2,20.3c-5.5,14.2-14.9,26.9-27,36.1c0.6-7.4,0.7-14.8,0.4-22.3
	c-0.2-4.3-5.3-6.6-8.5-3.6c-0.2-4-0.4-8-0.6-12c-0.1-2.6-1.9-4.3-4-4.8c0.2-0.1,0.4-0.3,0.6-0.4C347.7,339.9,355.3,334.6,363,329.3z
	 M324.4,355.9c-10.6,8.7-22,16.5-33.9,23.4C301.8,371.5,313.1,363.7,324.4,355.9z M309.4,441c-7.4,3.3-14.9,3.8-21.9,1.2
	c5.3-2.3,11.6-3.1,16.6-5.7c7.5-3.8,12.1-11.1,15.5-18.6c3.8-8.3,7.3-16.7,12.1-24.5c1.1-1.8,2.3-3.6,3.6-5.4
	c0.5,10.1,1.1,20.2,1.6,30.3c0.2,3,2.6,4.8,5.1,4.9c-0.7,0.4-1.3,0.8-2,1.2C330.1,430.2,320,436.2,309.4,441z M443.5,269.8
	c0-0.2,0-0.3-0.1-0.5c-2.2-11.1-6.2-21.8-11.6-31.6c0.1-0.2,0.1-0.5,0.2-0.7c5.1,4.4,8.9,10.2,10.7,16.8
	C444.1,259.1,444.2,264.5,443.5,269.8z"/>
<image style="overflow:visible;" width="240" height="70" xlink:href="C:\Users\Александр\Desktop\Кворк - navidrome\newagemusic.png"  transform="matrix(1.3085 0 0 1.3235 112.6561 215.5618)">
</image>
</svg>
