<?xml version="1.0" encoding="utf-8"?>
<!-- Generator: Adobe Illustrator 27.3.1, SVG Export Plug-In . SVG Version: 6.00 Build 0)  -->
<svg version="1.1" id="Слой_1" xmlns="http://www.w3.org/2000/svg" xmlns:xlink="http://www.w3.org/1999/xlink" x="0px" y="0px"
	 width="700px" height="700px" viewBox="0 0 700 700" style="enable-background:new 0 0 700 700;" xml:space="preserve">
<g transform="translate(0.000000,700.000000) scale(0.100000,-0.100000)">
	<path d="M3225,6988c-973-78-1852-545-2463-1308C-71,4639-234,3200,344,1985c329-691,917-1285,1611-1625c373-183,748-291,1190-342
		c142-16,568-16,710,0c628,73,1164,273,1659,620c162,114,334,262,491,423c417,428,695,906,860,1479c91,317,129,599,129,960
		c0,332-27,560-100,855c-277,1108-1095,2023-2164,2423C4257,6954,3726,7029,3225,6988z M3755,6699c873-75,1651-478,2209-1145
		c396-473,639-1031,723-1662c24-181,24-608-1-787c-83-604-293-1109-662-1585c-110-142-372-407-519-525c-467-373-997-597-1610-681
		c-184-25-608-25-790,0c-521,72-956,233-1375,511c-185,122-326,239-505,419c-511,513-814,1133-912,1863c-24,178-24,608,0,785
		c81,608,305,1136,681,1613c102,129,372,399,503,502c503,399,1085,631,1728,692C3356,6711,3616,6711,3755,6699z"/>
	<path d="M3255,6279c-624-54-1227-328-1682-763c-398-380-683-887-798-1419c-16-73-16-81,0-122c31-83,122-117,201-77
		c51,26,67,58,104,209c84,342,252,679,477,958c101,126,309,328,435,423c406,305,867,473,1383,503c195,11,217,19,253,91
		c18,35,22,55,16,83c-8,42-44,89-85,110C3528,6292,3420,6293,3255,6279z"/>
	<path d="M3320,5639c-526-45-1008-277-1376-661c-362-379-576-891-587-1401c-2-137,3-154,66-201c37-27,117-27,154,0
		c59,44,65,62,74,212c17,292,75,508,205,762c93,180,177,294,339,455c158,158,273,245,445,334c256,133,478,193,772,210
		c114,7,144,12,166,28c48,36,66,69,66,123c0,53-18,87-66,123C3546,5647,3465,5652,3320,5639z"/>
	<path d="M3363,4840c-313-35-592-170-813-390c-190-190-314-420-371-693c-31-143-31-371,0-514c57-273,179-500,370-692
		c255-257,587-394,951-394c491,0,922,252,1173,685c189,327,225,740,96,1105c-135,382-440,687-822,822C3771,4831,3534,4860,3363,4840
		z M3628,4550c235-30,448-134,618-304c363-363,414-920,123-1347c-56-83-187-214-267-268c-96-65-236-128-347-157
		c-87-23-119-27-255-27s-168,4-255,27c-188,49-356,145-490,280c-358,360-414,901-139,1324C2834,4413,3233,4599,3628,4550z"/>
	<path d="M3405,3886c-201-49-333-251-296-452c31-172,154-294,331-326c257-48,499,197,451,458c-23,124-95,227-198,281
		C3597,3898,3504,3910,3405,3886z M3579,3579c26-26,31-38,31-79s-5-53-31-79s-38-31-79-31s-53,5-79,31s-31,38-31,79s5,53,31,79
		s38,31,79,31S3553,3605,3579,3579z"/>
	<path d="M792,3693c-53-26-76-68-80-145c-7-116,49-191,142-191c53,0,102,26,126,66c16,25,20,50,20,114c0,73-3,85-26,113
		C923,3709,857,3725,792,3693z"/>
	<path d="M5454,3639c-18-5-46-25-62-44c-34-38-38-58-47-229c-20-409-207-829-510-1145c-331-346-759-542-1244-570
		c-153-9-171-15-215-74c-27-37-27-117,0-154c46-61,66-68,187-66c695,12,1351,382,1744,985c140,214,244,473,298,743
		c31,155,50,398,36,452c-13,47-55,90-102,103C5500,3651,5496,3651,5454,3639z"/>
	<path d="M6083,3631c-64-30-83-69-83-168c0-73,3-85,26-113c38-45,79-63,130-57c87,9,134,71,134,177C6290,3604,6191,3681,6083,3631z"
		/>
	<path d="M6019,3101c-47-26-63-61-103-221c-101-408-313-788-611-1098c-320-334-692-557-1143-686c-159-46-333-74-536-87
		c-196-12-218-20-254-89c-17-33-21-54-17-80c17-88,75-130,181-130c197,0,510,46,712,105c495,142,879,369,1233,725
		c371,374,631,849,744,1363c16,74,16,81,0,122c-9,25-30,54-47,66C6136,3122,6065,3126,6019,3101z"/>
</g>
<image style="overflow:visible;" width="512" height="512" xlink:href="android-chrome-512x512.png"  transform="matrix(1.2763 0 0 1.2793 23.3123 19.1905)">
</image>
</svg>
